<svg id="Calque_1" data-name="Calque 1" xmlns="http://www.w3.org/2000/svg" viewBox="0 0 100 100"><title>arrow-up</title><path d="M12.06,94.42A7,7,0,0,1,7.11,82.47l63.4-63.4H21.65a7,7,0,1,1,0-14h66a7,7,0,0,1,1.16.13,4.45,4.45,0,0,1,.53.15l.18.06a5,5,0,0,1,.6.2,5.26,5.26,0,0,1,.59.3l.09.05a4.88,4.88,0,0,1,.53.29,7,7,0,0,1,1.94,1.94,4.2,4.2,0,0,1,.26.46l.08.15a5.36,5.36,0,0,1,.3.6,5.14,5.14,0,0,1,.2.6l0,.1a4.93,4.93,0,0,1,.17.6,7,7,0,0,1,.14,1.37V77.83a7,7,0,0,1-14,0V29L17,92.37A7,7,0,0,1,12.06,94.42Z"/></svg>