<svg id="Calque_1" data-name="Calque 1" xmlns="http://www.w3.org/2000/svg" viewBox="0 0 100 100"><title>calendar</title><path d="M78.47,14.47h-9.2V9.34a3,3,0,1,0-6,0v5.13H36.73V9.34a3,3,0,1,0-6,0v5.13h-9.2A11.15,11.15,0,0,0,10.4,25.6V82.53A11.15,11.15,0,0,0,21.53,93.66H78.47A11.15,11.15,0,0,0,89.6,82.53V25.6A11.15,11.15,0,0,0,78.47,14.47Zm-56.93,6h9.2V25.6a3,3,0,0,0,6,0V20.47H63.27V25.6a3,3,0,0,0,6,0V20.47h9.2A5.14,5.14,0,0,1,83.6,25.6V38.87H16.4V25.6A5.14,5.14,0,0,1,21.53,20.47Zm56.93,67.2H21.53a5.14,5.14,0,0,1-5.13-5.13V44.87H83.6V82.53A5.14,5.14,0,0,1,78.47,87.66Zm-8.63-25H30.16a3,3,0,0,1,0-6H69.84a3,3,0,0,1,0,6ZM59.57,73a3,3,0,0,0-3-3H30.16a3,3,0,0,0,0,6h26.4A3,3,0,0,0,59.57,73Z"/></svg>