<svg id="Calque_1" data-name="Calque 1" xmlns="http://www.w3.org/2000/svg" viewBox="0 0 100 100"><title>device-car</title><path d="M83.07,16.59a7.19,7.19,0,0,0-6.79-4.83H23.71a7.19,7.19,0,0,0-6.79,4.83L7,45.22V83.46a4.79,4.79,0,0,0,4.78,4.78h4.78a4.78,4.78,0,0,0,4.78-4.78V78.68H78.68v4.78a4.79,4.79,0,0,0,4.78,4.78h4.78A4.78,4.78,0,0,0,93,83.46V45.22ZM23.71,64.34a7.17,7.17,0,1,1,7.17-7.17A7.16,7.16,0,0,1,23.71,64.34Zm52.58,0a7.17,7.17,0,1,1,7.17-7.17A7.16,7.16,0,0,1,76.29,64.34ZM16.54,40.44l7.17-21.51H76.29l7.17,21.51Z"/></svg>