<svg id="Calque_1" data-name="Calque 1" xmlns="http://www.w3.org/2000/svg" viewBox="0 0 100 100"><title>duration</title><path d="M77.57,28.29l3.76-3.76a3,3,0,1,0-4.24-4.24l-4,4A38.2,38.2,0,0,0,53,16.72v-4.8h6.48a3,3,0,0,0,0-6H40.54a3,3,0,0,0,0,6H47v4.8A38.46,38.46,0,1,0,77.57,28.29ZM50,87.41A32.41,32.41,0,1,1,82.41,55,32.45,32.45,0,0,1,50,87.41Zm17.39-22a3,3,0,0,1-4.11,1L48.46,57.58l-.06,0a3,3,0,0,1-.27-.2l-.2-.17c-.07-.07-.13-.15-.2-.22s-.13-.14-.18-.22-.1-.17-.15-.25-.1-.16-.13-.25-.07-.19-.1-.28-.06-.18-.08-.27,0-.18,0-.27a3,3,0,0,1,0-.32S47,55,47,55V32.15a3,3,0,0,1,6,0V53.3l13.35,8A3,3,0,0,1,67.39,65.37Z"/></svg>