<svg id="Calque_1" data-name="Calque 1" xmlns="http://www.w3.org/2000/svg" viewBox="0 0 100 100"><title>external-link</title><path d="M80.18,54.45V81.13A12.41,12.41,0,0,1,67.79,93.52H18.88A12.41,12.41,0,0,1,6.48,81.13V32.21A12.41,12.41,0,0,1,18.88,19.82H45.55a3.5,3.5,0,0,1,0,7H18.88a5.4,5.4,0,0,0-5.39,5.39V81.13a5.4,5.4,0,0,0,5.39,5.39H67.79a5.4,5.4,0,0,0,5.39-5.39V54.45a3.5,3.5,0,0,1,7,0ZM93.45,9.3c0-.1-.06-.2-.09-.3a3.45,3.45,0,0,0-.11-.35,3.45,3.45,0,0,0-.17-.33c0-.09-.09-.18-.15-.27a3.52,3.52,0,0,0-.43-.53h0A3.51,3.51,0,0,0,92,7.07c-.08-.06-.18-.09-.26-.14A2,2,0,0,0,91,6.64c-.1,0-.2-.07-.31-.09a3.51,3.51,0,0,0-.64-.06H63.34a3.5,3.5,0,0,0,0,7H81.57L38.63,56.42a3.5,3.5,0,1,0,4.95,5L86.52,18.43V36.66a3.5,3.5,0,0,0,7,0V10A3.51,3.51,0,0,0,93.45,9.3Z"/></svg>