<svg id="Calque_1" data-name="Calque 1" xmlns="http://www.w3.org/2000/svg" viewBox="0 0 100 100"><title>globe</title><path d="M50.14,6.61A43.39,43.39,0,1,0,93.53,50,43.44,43.44,0,0,0,50.14,6.61ZM87.4,47H69.17A64.75,64.75,0,0,0,56.94,13.24,37.45,37.45,0,0,1,87.4,47ZM37.14,53h26a58.76,58.76,0,0,1-13,32.8A58.77,58.77,0,0,1,37.14,53Zm0-6a58.76,58.76,0,0,1,13-32.79A58.75,58.75,0,0,1,63.14,47Zm6.2-33.76A64.76,64.76,0,0,0,31.11,47H12.88A37.45,37.45,0,0,1,43.33,13.24ZM12.88,53H31.11A64.76,64.76,0,0,0,43.34,86.76,37.45,37.45,0,0,1,12.88,53ZM56.94,86.76A64.75,64.75,0,0,0,69.17,53H87.4A37.45,37.45,0,0,1,56.94,86.76Z"/></svg>