<svg id="Calque_1" data-name="Calque 1" xmlns="http://www.w3.org/2000/svg" viewBox="0 0 100 100"><title>question-mark</title><path d="M49.65,90.82A41.08,41.08,0,1,1,90.73,49.74,41.13,41.13,0,0,1,49.65,90.82Zm0-76.33A35.25,35.25,0,1,0,84.9,49.74,35.29,35.29,0,0,0,49.65,14.49Zm0,60.31a6,6,0,1,1,6-6A6,6,0,0,1,49.65,74.81Zm-4.76-16.7V55.76c0-4.87,3.15-7,7.26-9.32l.26-.14c2.79-1.56,5.42-3,5.42-6.06,0-3.62-4.11-6.06-7.95-6.06-4.47,0-6.67,2.31-9.08,5.33l-.71.89L34,35.78l.64-.92c4.08-5.87,9-8.49,16-8.49,7.61,0,16.11,6,16.11,14,0,6.43-4.14,8.82-7.8,10.93-2.34,1.35-4.54,2.62-4.54,4.89v2Z"/></svg>