<svg id="Calque_1" data-name="Calque 1" xmlns="http://www.w3.org/2000/svg" viewBox="0 0 100 100"><title>refresh</title><path d="M92.06,44.18a3,3,0,0,1-.2.27c0,.05-.08.11-.13.17l0,0a3,3,0,0,1-.32.28l-.14.12a3,3,0,0,1-.48.27l0,0a3,3,0,0,1-.57.18,3,3,0,0,1-.52.05H68a3,3,0,0,1,0-6H82L70.81,29.07A29.36,29.36,0,0,0,22.31,40a3,3,0,1,1-5.66-2A35.36,35.36,0,0,1,75,24.76L86.54,35.62V21a3,3,0,1,1,6,0V42.55c0,.07,0,.13,0,.2a3,3,0,0,1,0,.34c0,.09,0,.18-.07.27a3,3,0,0,1-.09.29,2.88,2.88,0,0,1-.13.27C92.16,44,92.12,44.09,92.06,44.18ZM81.52,57.7a3,3,0,0,0-3.83,1.83,29.36,29.36,0,0,1-48.5,10.89L18,59.93H32a3,3,0,1,0,0-6H10.41A3,3,0,0,0,10,54l-.22,0a3,3,0,0,0-.32.1l-.24.08L9,54.32l-.25.14-.19.16a3,3,0,0,0-.26.23l0,0c0,.05-.08.11-.13.17a3,3,0,0,0-.2.27c-.05.08-.09.17-.14.25a2.93,2.93,0,0,0-.13.27,3,3,0,0,0-.09.29c0,.09-.05.17-.07.27a3,3,0,0,0,0,.34c0,.07,0,.13,0,.2V78.5a3,3,0,1,0,6,0V63.87L25,74.73a35.36,35.36,0,0,0,58.34-13.2A3,3,0,0,0,81.52,57.7Z"/></svg>