<svg id="Calque_1" data-name="Calque 1" xmlns="http://www.w3.org/2000/svg" viewBox="0 0 100 100"><title>social-github</title><path id="Icons" d="M50,6.58a44.17,44.17,0,0,1,13.93,86c-2.23.43-3-.94-3-2.12,0-1.45.06-6.21.06-12.11,0-4.12-1.41-6.81-3-8.17C67.77,69.1,78,65.37,78,48.41a17.07,17.07,0,0,0-4.52-11.85c.45-1.12,2-5.6-.44-11.68,0,0-3.69-1.19-12.08,4.52a41.49,41.49,0,0,0-22,0C30.6,23.7,26.9,24.88,26.9,24.88,24.51,31,26,35.45,26.47,36.56a17.1,17.1,0,0,0-4.53,11.85c0,16.91,10.26,20.7,20,21.81a9.44,9.44,0,0,0-2.79,5.9c-2.51,1.13-8.87,3.08-12.8-3.67,0,0-2.32-4.24-6.73-4.55,0,0-4.3-.06-.3,2.68,0,0,2.88,1.36,4.88,6.46,0,0,2.58,8.59,14.81,5.92,0,3.68.06,6.46.06,7.51s-.8,2.53-3,2.13A44.17,44.17,0,0,1,50,6.58"/></svg>