<svg id="Calque_1" data-name="Calque 1" xmlns="http://www.w3.org/2000/svg" viewBox="0 0 100 100"><defs><style>.cls-1{fill:#fa4778;}</style></defs><title>social-foursquare</title><path id="Icons" class="cls-1" d="M70.78,18.69,68.7,28.87a2.63,2.63,0,0,1-2.5,2H48.08a3.73,3.73,0,0,0-3.7,3.74v2.23a3.73,3.73,0,0,0,3.7,3.74H63.39a2.43,2.43,0,0,1,2.32,2.89c-.3,1.57-1.91,9.52-2.09,10.37a2.55,2.55,0,0,1-2.5,2H48.61c-2.62.06-3.16.12-4.71,2S28.65,77.26,28.65,77.26c-.12.18-.24.12-.24-.06v-59a2.53,2.53,0,0,1,2.5-2.53H68.52a2.45,2.45,0,0,1,2.26,3M73.52,6H27.1c-6.38,0-8.28,4.88-8.28,8V88.53c0,3.68,1.85,4.76,2.86,5.18a5.44,5.44,0,0,0,5.6-1.21l22.41-26.4c.36-.42.54-.42.77-.42H64.41c6,0,7.09-4.16,7.75-6.69.54-2.11,6.68-32.24,8.58-41.76C82.17,9.89,80.32,6,73.52,6"/></svg>