<svg id="Calque_1" data-name="Calque 1" xmlns="http://www.w3.org/2000/svg" viewBox="0 0 100 100"><defs><style>.cls-1{fill:#007ebb;}.cls-2{fill:#fff;}</style></defs><title>social-linkedin</title><path class="cls-1" d="M88.7,6.5H11.3a4.81,4.81,0,0,0-4.8,4.8V88.69a4.8,4.8,0,0,0,4.8,4.8H88.7a4.8,4.8,0,0,0,4.8-4.8V11.3A4.81,4.81,0,0,0,88.7,6.5ZM32.89,79.78H19.75V40.25H32.89ZM26.33,34.85h-.09c-4.4,0-7.27-3-7.27-6.82s2.94-6.83,7.43-6.83,7.27,3,7.36,6.83S30.9,34.85,26.33,34.85ZM80.25,79.78H67.13V58.63c0-5.31-1.9-8.94-6.65-8.94a7.18,7.18,0,0,0-6.74,4.8,9.11,9.11,0,0,0-.43,3.21V79.78H40.16s.18-35.82,0-39.53H53.3v5.58a13.05,13.05,0,0,1,11.84-6.51c8.65,0,15.12,5.65,15.12,17.78ZM53.3,46v-.15l-.09.15Z"/><path class="cls-2" d="M53.3,45.83V46h-.09Z"/></svg>