<svg id="Calque_1" data-name="Calque 1" xmlns="http://www.w3.org/2000/svg" viewBox="0 0 100 100"><defs><style>.cls-1{fill:#00b2ea;}</style></defs><title>social-vimeo</title><path id="Icons" class="cls-1" d="M93.79,30.57q-.57,12.57-17.73,34.36Q58.31,87.72,46,87.72q-7.6,0-12.86-13.89-3.52-12.76-7-25.49-3.91-13.91-8.39-13.91c-.65,0-2.92,1.35-6.83,4.06L6.81,33.28q6.43-5.58,12.68-11.19,8.57-7.34,12.87-7.73,10.13-1,12.49,13.71,2.51,15.84,3.5,19.7,2.93,13.13,6.44,13.12,2.72,0,8.19-8.48t5.85-12.94c.52-4.89-1.43-7.32-5.85-7.32a16.77,16.77,0,0,0-6.44,1.35Q63,12.82,81.13,13.4q13.44.37,12.66,17.17"/></svg>