<svg id="Calque_1" data-name="Calque 1" xmlns="http://www.w3.org/2000/svg" viewBox="0 0 100 100"><defs><style>.cls-1{fill:#ce1312;}</style></defs><title>social-youtube</title><path id="Icons" class="cls-1" d="M41,61.88V37.34L64.48,49.65Zm51.47-28.8s-.85-6-3.45-8.67c-3.3-3.48-7-3.5-8.69-3.7C68.23,19.83,50,19.83,50,19.83h0s-18.21,0-30.35.88c-1.7.2-5.39.22-8.69,3.7-2.6,2.65-3.45,8.67-3.45,8.67a133.1,133.1,0,0,0-.87,14.14v6.63A133,133,0,0,0,7.49,68s.85,6,3.45,8.67c3.3,3.48,7.64,3.37,9.57,3.74,6.94.67,29.5.88,29.5.88s18.23,0,30.37-.91c1.69-.2,5.39-.22,8.69-3.7C91.66,74,92.51,68,92.51,68a133,133,0,0,0,.87-14.14V47.22a133.1,133.1,0,0,0-.87-14.14Z"/></svg>