<svg id="Calque_1" data-name="Calque 1" xmlns="http://www.w3.org/2000/svg" xmlns:xlink="http://www.w3.org/1999/xlink" viewBox="0 0 100 100"><defs><style>.cls-1{fill:url(#Dégradé_sans_nom_3);}.cls-2{fill:url(#Dégradé_sans_nom_2);}</style><radialGradient id="Dégradé_sans_nom_3" cx="18.04" cy="-419.56" r="113.65" gradientTransform="matrix(1, 0, 0, -1, 0, -325.16)" gradientUnits="userSpaceOnUse"><stop offset="0.09" stop-color="#fa8f21"/><stop offset="0.78" stop-color="#d82d7e"/></radialGradient><radialGradient id="Dégradé_sans_nom_2" cx="59.27" cy="-423.46" r="89.57" gradientTransform="matrix(1, 0, 0, -1, 0, -325.16)" gradientUnits="userSpaceOnUse"><stop offset="0.64" stop-color="#8c3aaa" stop-opacity="0"/><stop offset="1" stop-color="#8c3aaa"/></radialGradient></defs><title>social-instagram</title><path class="cls-1" d="M35.49,50.45A14.51,14.51,0,1,1,50,65,14.51,14.51,0,0,1,35.49,50.45m-7.84,0A22.35,22.35,0,1,0,50,28.09,22.35,22.35,0,0,0,27.65,50.45M68,27.21A5.22,5.22,0,1,0,73.24,22h0A5.23,5.23,0,0,0,68,27.21M32.41,85.88a24.06,24.06,0,0,1-8.08-1.5,13.53,13.53,0,0,1-5-3.26,13.43,13.43,0,0,1-3.26-5A24,24,0,0,1,14.57,68c-.21-4.59-.25-6-.25-17.59s0-13,.25-17.59a24.22,24.22,0,0,1,1.5-8.08,13.53,13.53,0,0,1,3.26-5,13.42,13.42,0,0,1,5-3.26A24,24,0,0,1,32.41,15c4.59-.21,6-.25,17.59-.25s13,0,17.59.25a24.22,24.22,0,0,1,8.08,1.5,14.41,14.41,0,0,1,8.26,8.26,24,24,0,0,1,1.5,8.08c.21,4.59.25,6,.25,17.59s0,13-.25,17.59a24.15,24.15,0,0,1-1.5,8.08,14.41,14.41,0,0,1-8.26,8.26,24,24,0,0,1-8.08,1.5c-4.59.21-6,.25-17.59.25s-13,0-17.59-.25m-.36-78.7a31.92,31.92,0,0,0-10.57,2,21.35,21.35,0,0,0-7.71,5,21.27,21.27,0,0,0-5,7.71,31.93,31.93,0,0,0-2,10.57c-.21,4.64-.26,6.13-.26,17.95s0,13.31.26,17.95A31.93,31.93,0,0,0,8.75,79a21.28,21.28,0,0,0,5,7.71,21.4,21.4,0,0,0,7.71,5,32,32,0,0,0,10.57,2c4.64.21,6.13.26,17.95.26s13.31,0,17.95-.26a31.93,31.93,0,0,0,10.57-2A22.26,22.26,0,0,0,91.25,79a31.84,31.84,0,0,0,2-10.57c.21-4.65.26-6.13.26-17.95s0-13.31-.26-17.95a31.92,31.92,0,0,0-2-10.57,21.41,21.41,0,0,0-5-7.71,21.3,21.3,0,0,0-7.71-5A31.88,31.88,0,0,0,68,7.18C63.31,7,61.83,6.92,50,6.92s-13.31,0-18,.26"/><path class="cls-2" d="M35.49,50.45A14.51,14.51,0,1,1,50,65,14.51,14.51,0,0,1,35.49,50.45m-7.84,0A22.35,22.35,0,1,0,50,28.09,22.35,22.35,0,0,0,27.65,50.45M68,27.21A5.22,5.22,0,1,0,73.24,22h0A5.23,5.23,0,0,0,68,27.21M32.41,85.88a24.06,24.06,0,0,1-8.08-1.5,13.53,13.53,0,0,1-5-3.26,13.43,13.43,0,0,1-3.26-5A24,24,0,0,1,14.57,68c-.21-4.59-.25-6-.25-17.59s0-13,.25-17.59a24.22,24.22,0,0,1,1.5-8.08,13.53,13.53,0,0,1,3.26-5,13.42,13.42,0,0,1,5-3.26A24,24,0,0,1,32.41,15c4.59-.21,6-.25,17.59-.25s13,0,17.59.25a24.22,24.22,0,0,1,8.08,1.5,14.41,14.41,0,0,1,8.26,8.26,24,24,0,0,1,1.5,8.08c.21,4.59.25,6,.25,17.59s0,13-.25,17.59a24.15,24.15,0,0,1-1.5,8.08,14.41,14.41,0,0,1-8.26,8.26,24,24,0,0,1-8.08,1.5c-4.59.21-6,.25-17.59.25s-13,0-17.59-.25m-.36-78.7a31.92,31.92,0,0,0-10.57,2,21.35,21.35,0,0,0-7.71,5,21.27,21.27,0,0,0-5,7.71,31.93,31.93,0,0,0-2,10.57c-.21,4.64-.26,6.13-.26,17.95s0,13.31.26,17.95A31.93,31.93,0,0,0,8.75,79a21.28,21.28,0,0,0,5,7.71,21.4,21.4,0,0,0,7.71,5,32,32,0,0,0,10.57,2c4.64.21,6.13.26,17.95.26s13.31,0,17.95-.26a31.93,31.93,0,0,0,10.57-2A22.26,22.26,0,0,0,91.25,79a31.84,31.84,0,0,0,2-10.57c.21-4.65.26-6.13.26-17.95s0-13.31-.26-17.95a31.92,31.92,0,0,0-2-10.57,21.41,21.41,0,0,0-5-7.71,21.3,21.3,0,0,0-7.71-5A31.88,31.88,0,0,0,68,7.18C63.31,7,61.83,6.92,50,6.92s-13.31,0-18,.26"/></svg>