<svg id="Calque_1" data-name="Calque 1" xmlns="http://www.w3.org/2000/svg" viewBox="0 0 100 100"><defs><style>.cls-1{fill:#ff5700;}</style></defs><title>social-reddit</title><path id="Icons" class="cls-1" d="M63,61.55a6,6,0,0,1-6-5.88,6.07,6.07,0,0,1,6-6,6,6,0,0,1,5.93,6A5.91,5.91,0,0,1,63,61.55M64.43,73c-3.05,3-7.76,4.49-14.39,4.49H50C43.32,77.46,38.62,76,35.57,73a2.35,2.35,0,0,1,0-3.36,2.41,2.41,0,0,1,3.39,0c2.1,2.08,5.7,3.1,11,3.1H50c5.3,0,8.9-1,11-3.1a2.41,2.41,0,0,1,3.39,0,2.36,2.36,0,0,1,0,3.36M31,55.67a6.06,6.06,0,0,1,6-6,6,6,0,0,1,5.93,6A5.91,5.91,0,0,1,37,61.55a6,6,0,0,1-6-5.88M79.21,18.22a4,4,0,1,1-4,4,4,4,0,0,1,4-4m14.62,31a10.55,10.55,0,0,0-17.17-8.1A49.91,49.91,0,0,0,53.34,34.2L57.9,19.91l12.53,2.92a8.75,8.75,0,1,0,1-4.65l-14.56-3.4A2.39,2.39,0,0,0,54,16.39L48.35,34.11c-9.42.23-18.27,2.65-25.16,6.88a10.55,10.55,0,0,0-17,8.22,10.4,10.4,0,0,0,4.56,8.59,18.16,18.16,0,0,0-.18,2.51c0,7.2,4.22,13.89,11.89,18.85,7.35,4.75,17.07,7.37,27.38,7.37s20-2.62,27.38-7.37c7.67-5,11.89-11.65,11.89-18.85A18.21,18.21,0,0,0,88.94,58a10.42,10.42,0,0,0,4.89-8.81"/></svg>