<svg id="Calque_1" data-name="Calque 1" xmlns="http://www.w3.org/2000/svg" viewBox="0 0 100 100"><defs><style>.cls-1{fill:#00aaec;}</style></defs><title>social-twitter</title><path id="Icons" class="cls-1" d="M93.32,22.44a36.49,36.49,0,0,1-8.86,9.43c0,.78,0,1.57,0,2.36,0,24.09-17.88,51.86-50.58,51.86A49.49,49.49,0,0,1,6.68,77.92a35.58,35.58,0,0,0,4.24.25A35.1,35.1,0,0,0,33,70.36,17.84,17.84,0,0,1,16.39,57.71a17.27,17.27,0,0,0,3.35.32,17,17,0,0,0,4.68-.64A18.12,18.12,0,0,1,10.15,39.52V39.3a17.45,17.45,0,0,0,8.06,2.27A18.35,18.35,0,0,1,10.3,26.4a18.56,18.56,0,0,1,2.41-9.17A50,50,0,0,0,49.35,36.28a18.6,18.6,0,0,1-.46-4.15A18,18,0,0,1,66.66,13.9a17.53,17.53,0,0,1,13,5.75,35,35,0,0,0,11.3-4.42,18.19,18.19,0,0,1-7.82,10.08,34.72,34.72,0,0,0,10.21-2.87"/></svg>