<svg id="Calque_1" data-name="Calque 1" xmlns="http://www.w3.org/2000/svg" viewBox="0 0 100 100"><defs><style>.cls-1{fill:#ec4989;}</style></defs><title>social-dribbble</title><path id="Icons" class="cls-1" d="M70.73,80.77a160.33,160.33,0,0,0-7.22-26.5,53.79,53.79,0,0,1,23.12,1.62,37.11,37.11,0,0,1-15.9,24.88ZM50,87.1A37,37,0,0,1,26.36,78.6c.49.4.83.65.83.65s7.11-15.51,29.11-23.18l.25-.08a154.36,154.36,0,0,1,7.92,28.17A37,37,0,0,1,50,87.1ZM12.9,50c0-.39,0-.78,0-1.17A136,136,0,0,0,51,43.54c1.06,2.08,2.08,4.2,3,6.31-.49.13-1,.28-1.46.44-20,6.47-30.18,24.48-30.18,24.48l0,0A37,37,0,0,1,12.9,50ZM34.17,16.45A221.88,221.88,0,0,1,47.95,37.82a137.23,137.23,0,0,1-34.25,4.53,37.11,37.11,0,0,1,20.48-25.9ZM41.11,14h0L41,14l.12,0ZM74.5,22.16c-.09.14-5.37,8.18-19.38,13.43A188.5,188.5,0,0,0,41.26,13.95,37,37,0,0,1,74.5,22.16ZM87.09,49.63a85.81,85.81,0,0,0-25.84-1.22c-.27-.63-.53-1.27-.8-1.91-.77-1.82-1.6-3.62-2.47-5.38,14.65-6,20.6-14.58,20.67-14.68a37,37,0,0,1,8.44,23.19Zm5.47-8.37A43.59,43.59,0,0,0,90,33.09a42.92,42.92,0,0,0-4-7.38,43.45,43.45,0,0,0-72,0A43.29,43.29,0,0,0,7.44,41.26a44,44,0,0,0,0,17.5A43.49,43.49,0,0,0,14,74.29,43.44,43.44,0,0,0,25.71,86a43.53,43.53,0,0,0,7.38,4,42.79,42.79,0,0,0,8.16,2.53,43.5,43.5,0,0,0,17.5,0A42.79,42.79,0,0,0,66.91,90a43.29,43.29,0,0,0,7.38-4A43.36,43.36,0,0,0,86,74.29a43.49,43.49,0,0,0,6.54-15.54,44,44,0,0,0,0-17.5Z"/></svg>