<svg id="Calque_1" data-name="Calque 1" xmlns="http://www.w3.org/2000/svg" viewBox="0 0 100 100"><defs><style>.cls-1{fill:#cc2127;}</style></defs><title>social-pinterest</title><path id="Icons" class="cls-1" d="M50,7.19A42.81,42.81,0,1,1,37.87,91a35.7,35.7,0,0,0,4.31-9.17c.52-1.9,3-11.76,3-11.76C46.68,73,51,75.45,55.65,75.45c13.77,0,23.1-12.54,23.1-29.34,0-12.69-10.76-24.53-27.1-24.53-20.34,0-30.59,14.59-30.59,26.75,0,7.36,2.78,13.91,8.77,16.36A1.47,1.47,0,0,0,32,63.61c.2-.75.67-2.65.87-3.43a2.08,2.08,0,0,0-.61-2.39,12.35,12.35,0,0,1-2.82-8.4c0-10.81,8.09-20.49,21.07-20.49,11.49,0,17.81,7,17.81,16.4,0,12.34-5.46,22.76-13.57,22.76-4.48,0-7.83-3.7-6.76-8.25,1.28-5.42,3.78-11.28,3.78-15.19,0-3.5-1.88-6.43-5.77-6.43-4.58,0-8.26,4.74-8.26,11.08a16.48,16.48,0,0,0,1.36,6.78S34.39,75.9,33.56,79.38a37.88,37.88,0,0,0-.74,9.83A42.81,42.81,0,0,1,50,7.19"/></svg>