<svg id="Calque_1" data-name="Calque 1" xmlns="http://www.w3.org/2000/svg" viewBox="0 0 100 100"><title>users</title><path d="M68.27,85.89a3,3,0,0,1-3-3V75.58A11.63,11.63,0,0,0,53.65,64H24.42A11.63,11.63,0,0,0,12.81,75.58v7.31a3,3,0,0,1-6,0V75.58A17.64,17.64,0,0,1,24.42,58H53.65A17.64,17.64,0,0,1,71.27,75.58v7.31A3,3,0,0,1,68.27,85.89ZM56.65,31.73A17.62,17.62,0,1,0,39,49.35,17.64,17.64,0,0,0,56.65,31.73Zm-6,0A11.62,11.62,0,1,1,39,20.11,11.63,11.63,0,0,1,50.65,31.73ZM93.19,82.89V75.58A17.61,17.61,0,0,0,80,58.53a3,3,0,0,0-1.5,5.81,11.61,11.61,0,0,1,8.71,11.24v7.31a3,3,0,0,0,6,0ZM65.36,48.81a17.62,17.62,0,0,0,0-34.13,3,3,0,1,0-1.49,5.81,11.62,11.62,0,0,1,0,22.51,3,3,0,1,0,1.49,5.81Z"/></svg>